<?xml version="1.0" encoding="utf-8"?>
<!-- Generator: Adobe Illustrator 16.0.0, SVG Export Plug-In . SVG Version: 6.00 Build 0)  -->
<!DOCTYPE svg PUBLIC "-//W3C//DTD SVG 1.1//EN" "http://www.w3.org/Graphics/SVG/1.1/DTD/svg11.dtd">
<svg version="1.1" id="Layer_1" xmlns="http://www.w3.org/2000/svg" xmlns:xlink="http://www.w3.org/1999/xlink" x="0px" y="0px"
	 width="280px" height="270px" viewBox="0 0 280 270" enable-background="new 0 0 280 270" xml:space="preserve">
<g transform="rotate(30) translate(-210, -230)">
	<g>
		<g>
			<path d="M406.072,206.578c0.79-2.249,1.556-5.124,1.855-7.67c0.255-2.203,0.646-5.073,1.099-8.264l1.166-3.75
				c0,0-0.212-0.613-0.437-1.292c0.333-2.255,0.675-4.581,1.018-6.881c1.687-11.34,1.398-20.949,1.489-24.567
				c0.155-5.884-0.655-20.992-0.655-20.992c-2.406,13.837-4.066,26.614-4.742,32.133c-1.065,1.084-2.046,1.244-2.013,2.664
				c-0.185,1.695-3.898,15.315-6.059,24.496l-2.171,3.752l-3.192,8.734l0.215,2.794c-0.313,1.346-0.618,2.73-0.891,4.104
				c-0.779,3.878-3.293,12.053-5.111,17.739c-0.185,0.146-0.35,0.317-0.518,0.487l0.014-0.034l-1.169-1.037l-0.198,2.9
				c-0.185,0.366-0.339,0.729-0.43,1.089c-0.017,0.077-1.959,7.914-4.181,13.624c-1.395,3.603-4.409,14.42-7.326,24.886
				c-1.593,5.718-3.125,11.216-4.234,14.961c-2.299,1.697-2.833,3.757-4.725,11.026c-2.117,8.159-9.117,23.601-15.912,37.515
				l-3.064,4.987l-2.013,5.217c-2.03,4.007-3.908,7.633-5.467,10.584c-1.946,3.678-4.591,8.736-4.591,8.736
				c-0.42,0.803-0.602,1.563-0.534,2.146c-3.549,5.348-9.467,16.826-9.887,17.292c0,0,20.734-22.079,34.546-50.747l13.765-28.555
				c0.191-0.103,2.917-6.696,3.115-6.835c2.077-1.48-0.061,3.912,2.94-4.525c0.521-1.469,1.079-3.028,1.636-4.561
				c0.467-1.292,1.18-3.401,2.043-6.003l2.725-5.727l-0.161-2.115c0.941-2.902,1.939-5.99,2.92-9.046
				c2.779-8.606,5.649-17.497,6.341-19.273c0.941-2.417,2.353-6.536,3.485-9.843c0.605-1.757,1.287-3.754,1.452-4.164
				c0.262-0.642,0.518-1.571,2.104-7.646c0.985-3.771,2.77-10.623,3.909-14.516c0.181-0.136,0.42-0.499,0.686-1.015l-0.003,0.005
				l0.719-0.047C405.628,209.347,405.83,208.112,406.072,206.578z M401.723,205.944c-1.693,1.566-2.154,2.792-6.926,21.106
				c-0.723,2.757-1.533,5.874-1.758,6.58c-0.265,0.676-0.726,2.027-1.603,4.583c-1.045,3.051-2.477,7.235-3.344,9.453
				c-0.746,1.917-2.967,8.769-6.536,19.829c-3.034,9.411-6.177,19.146-7.417,22.561c-0.564,1.551-1.129,3.128-1.657,4.616
				c-0.43,1.213-0.907,2.557-1.341,3.743c-1.012,0.83-1.983,2.074-2.894,3.713c-0.02,0.037-0.043,0.081-0.064,0.121
				c0.935-2.567,1.697-4.901,2.215-6.897c0.198-0.768,0.376-1.443,0.534-2.04c1.748-1.443,2.437-3.465,2.863-4.702
				c1.069-3.128,3.229-10.89,5.525-19.109c2.722-9.772,5.807-20.851,7.026-23.996c1.099-2.828,2.107-6.019,2.897-8.715
				c0.796-0.753,1.462-1.737,1.778-2.7c0.242-0.732,6.002-18.083,7.35-24.816c0.4-1.991,0.874-4.046,1.341-5.931
				c2-1.659,2.537-3.964,2.971-5.835c0.01-0.034,0.101-0.449,0.265-1.161c-0.295,2.132-0.544,4.044-0.732,5.664
				C402.016,203.723,401.854,204.997,401.723,205.944z"/>
			<path fill="#A9A8A8" d="M406.018,205.857c0.786-2.247,1.556-5.121,1.852-7.668c0.255-2.203,0.648-5.071,1.102-8.265l1.167-3.749
				c0,0-0.215-0.613-0.437-1.29c0.333-2.258,0.675-4.584,1.015-6.884c1.69-11.338,1.398-20.946,1.489-24.563
				c0.155-5.885-0.652-20.994-0.652-20.994c-2.406,13.837-4.069,26.614-4.742,32.13c-1.065,1.085-2.05,1.245-2.013,2.667
				c-0.185,1.697-3.895,15.314-6.056,24.497l-2.178,3.752l-3.186,8.735l0.212,2.796c-0.316,1.339-0.618,2.73-0.894,4.101
				c-0.773,3.88-3.296,12.053-5.108,17.739c-0.185,0.145-0.35,0.316-0.518,0.482l0.014-0.032l-1.173-1.033l-0.195,2.903
				c-0.185,0.365-0.343,0.726-0.43,1.085c-0.017,0.078-1.963,7.916-4.181,13.625c-1.398,3.601-4.412,14.42-7.329,24.883
				c-1.593,5.718-3.125,11.217-4.231,14.961c-2.299,1.699-2.836,3.761-4.725,11.029c-2.121,8.158-9.117,23.601-15.912,37.514
				l-3.062,4.989l-2.016,5.214c-2.03,4.011-3.908,7.637-5.471,10.587c-1.946,3.675-4.591,8.736-4.591,8.736
				c-0.417,0.8-0.598,1.561-0.534,2.146c-3.549,5.341-9.463,16.826-9.883,17.29c0,0,20.731-22.077,34.546-50.746l13.762-28.556
				c0.195-0.103,2.917-6.698,3.119-6.837c2.077-1.48-0.064,3.912,2.94-4.528c0.524-1.463,1.079-3.022,1.633-4.555
				c0.474-1.29,1.183-3.399,2.043-6.001l2.726-5.73l-0.158-2.112c0.941-2.905,1.939-5.994,2.92-9.05
				c2.779-8.601,5.649-17.497,6.341-19.272c0.938-2.418,2.352-6.536,3.488-9.843c0.602-1.759,1.287-3.752,1.448-4.164
				c0.262-0.64,0.518-1.569,2.1-7.645c0.985-3.771,2.772-10.621,3.909-14.512c0.185-0.14,0.423-0.501,0.686-1.017v0.005l0.719-0.045
				C405.574,208.629,405.776,207.39,406.018,205.857z M401.669,205.225c-1.697,1.566-2.154,2.793-6.929,21.106
				c-0.719,2.757-1.533,5.874-1.751,6.582c-0.266,0.675-0.732,2.028-1.606,4.582c-1.045,3.051-2.48,7.232-3.344,9.452
				c-0.746,1.919-2.964,8.768-6.536,19.829c-3.038,9.411-6.173,19.145-7.417,22.559c-0.564,1.551-1.129,3.13-1.657,4.618
				c-0.43,1.213-0.907,2.557-1.341,3.745c-1.015,0.829-1.983,2.073-2.894,3.707c-0.02,0.042-0.041,0.084-0.064,0.129
				c0.938-2.567,1.694-4.903,2.211-6.906c0.202-0.765,0.38-1.438,0.538-2.037c1.748-1.445,2.433-3.463,2.86-4.7
				c1.072-3.13,3.233-10.89,5.524-19.109c2.722-9.772,5.811-20.849,7.03-23.996c1.099-2.826,2.107-6.02,2.894-8.715
				c0.796-0.754,1.462-1.737,1.781-2.7c0.242-0.734,6.008-18.081,7.353-24.814c0.396-1.993,0.867-4.049,1.338-5.933
				c1.999-1.658,2.537-3.964,2.971-5.837c0.01-0.033,0.104-0.447,0.265-1.158c-0.295,2.131-0.544,4.046-0.736,5.663
				C401.962,203.004,401.804,204.278,401.669,205.225z"/>
			<path d="M322.549,384.383c0,0,0.125-0.15,0.346-0.412C322.778,384.114,322.66,384.254,322.549,384.383z M405.017,199.738
				c1.341-11.515,6.049-39.683,6.204-45.601c0.154-5.919,0.168-18.957,0.168-18.957s-3.357,30.023-3.649,31.463
				c-0.296,1.442-1.62-0.084-1.529,1.087c0.087,1.167-4.846,23.69-6.368,30.224c-1.519,6.537-0.944-1.792-0.944-1.792
				s-2.073,7.109-3.391,13.675c-1.314,6.567-7.215,24.317-7.215,24.317l-0.229-3.002c0,0-1.999,8.109-4.362,14.187
				c-2.359,6.074-10.317,36.554-12.625,43.297c-2.305,6.746,0.716-9.132-3.492,7.059c-4.207,16.196-24.972,55.77-26.908,59.439
				c-1.942,3.663-4.58,8.707-4.58,8.707l1.721-1.222c0,0-10.122,15.593-14.813,21.227c2.887-3.43,18.917-23.063,32.483-51.209
				c14.961-31.055,14.961-31.055,14.961-31.055s1.774-3.196,1.546-0.921c-0.232,2.279,2.231-5.106,4.729-11.983
				c2.497-6.881,12.39-38.384,13.913-42.277c1.512-3.893,4.459-12.854,4.97-14.097c0.511-1.244,6.2-24.473,7.145-25.32
				C403.689,206.138,403.676,211.254,405.017,199.738z"/>
		</g>
		<g>
			<path d="M430.805,334.168l-0.564-0.434l-0.007,0.003c0.067-0.536,0.067-0.941-0.007-1.143c1.193-3.561,3.481-9.702,4.735-13.083
				c2.023-5.447,2.322-6.286,2.457-6.914c0.09-0.402,0.618-2.28,1.085-3.935c0.88-3.114,1.972-6.994,2.52-9.334
				c0.403-1.719,2.914-9.998,5.337-18.007c0.863-2.841,1.734-5.718,2.55-8.42l1.294-1.504l0.891-5.815
				c0.716-2.435,1.284-4.417,1.606-5.649c0.38-1.458,0.776-2.94,1.149-4.333c2.147-8.006,0.958-2.769,0.054-5.032
				c-0.087-0.213,1.277-6.681,1.176-6.864l4.295-29.096c4.315-29.209-0.709-57.288-0.709-57.288
				c0.09,0.584-1.317,12.491-1.317,18.476c-0.376,0.403-0.642,1.075-0.736,1.91c0,0-0.588,5.268-0.998,9.114
				c-0.333,3.08-0.77,6.849-1.291,10.987l-1.2,5.039l-0.205,5.446c-2.02,14.227-4.705,29.714-7.434,37.024
				c-2.426,6.515-3.115,8.361-2.144,10.908c-1.143,3.431-2.89,8.415-4.711,13.599c-3.337,9.487-6.781,19.292-7.602,22.776
				c-1.3,5.523-3.996,12.493-4.022,12.562c-0.125,0.319-0.195,0.677-0.242,1.054l-1.428,2.293l1.532-0.131l0.01-0.032
				c0.047,0.219,0.088,0.438,0.158,0.65c-1.616,5.283-4.022,12.825-5.511,16.171c-0.528,1.185-1.032,2.399-1.512,3.584l-1.71,1.982
				l-2.158,8.336l-0.262,4.024c-3.257,8.104-7.659,20.405-8.438,21.781c-0.807,1.048-0.081,1.714,0.205,3.119
				c-2.474,4.525-8.112,15.057-13.721,26.795c0,0,8.966-10.917,12.064-15.43c1.909-2.771,7.427-9.84,12.252-19.307
				c0.981-1.918,1.973-3.859,2.937-5.74c0.558-0.386,1.072-0.729,1.072-0.729l1.092-3.468c1.375-2.651,2.628-5.025,3.626-6.823
				c1.153-2.08,2.097-4.668,2.678-6.797C430.294,335.208,430.805,334.168,430.805,334.168z M423.957,337.798
				c-0.732,1.326-1.576,2.9-2.503,4.668c0.255-0.624,0.406-0.99,0.42-1.02c0.668-1.646,1.489-3.68,0.746-6.036
				c0.652-1.673,1.381-3.481,2.147-5.2c2.581-5.811,7.342-22.048,7.544-22.734c0.266-0.902,0.255-2.01,0.014-3.018
				c0.827-2.465,1.744-5.422,2.386-8.158c0.719-3.043,4.248-13.084,7.36-21.939c2.614-7.454,5.091-14.489,5.924-17.435
				c0.326-1.167,0.864-3.068,0.215-5.118c0.195-0.538,0.417-1.145,0.675-1.832c0.666-1.792,1.317-3.967,1.956-6.417
				c-0.007,0.043-0.01,0.087-0.014,0.131c-0.148,1.734-0.027,3.208,0.353,4.392c-0.292,1.131-0.639,2.406-0.944,3.559
				c-0.383,1.41-0.78,2.909-1.166,4.389c-0.847,3.255-3.593,12.316-6.25,21.076c-3.122,10.295-5.044,16.678-5.478,18.532
				c-0.504,2.149-1.613,6.087-2.426,8.962c-0.675,2.408-1.038,3.68-1.189,4.335c-0.202,0.654-1.244,3.446-2.161,5.919
				c-6.106,16.418-6.398,17.596-5.854,19.711C425.297,335.355,424.733,336.398,423.957,337.798z"/>
			<path fill="#A9A8A8" d="M430.368,334.678l-0.574-0.432v0.001c0.067-0.531,0.067-0.938-0.01-1.143
				c1.196-3.557,3.478-9.7,4.738-13.083c2.023-5.444,2.322-6.284,2.457-6.914c0.094-0.398,0.618-2.273,1.089-3.932
				c0.877-3.113,1.969-6.995,2.521-9.334c0.4-1.72,2.91-9.998,5.333-18.007c0.864-2.841,1.737-5.718,2.551-8.423l1.293-1.5
				l0.891-5.819c0.719-2.437,1.287-4.414,1.606-5.646c0.38-1.458,0.78-2.94,1.149-4.33c2.147-8.013,0.958-2.772,0.054-5.036
				c-0.091-0.215,1.28-6.682,1.173-6.867l4.298-29.094c4.312-29.213-0.709-57.287-0.709-57.287
				c0.094,0.583-1.317,12.493-1.317,18.471c-0.373,0.405-0.642,1.081-0.739,1.916c0,0-0.588,5.268-0.998,9.11
				c-0.326,3.08-0.766,6.849-1.287,10.989l-1.196,5.039l-0.205,5.446c-2.023,14.225-4.711,29.712-7.437,37.021
				c-2.426,6.516-3.115,8.362-2.144,10.912c-1.143,3.431-2.89,8.415-4.715,13.598c-3.331,9.483-6.778,19.291-7.602,22.774
				c-1.297,5.521-3.992,12.496-4.02,12.563c-0.124,0.319-0.195,0.679-0.242,1.054l-1.432,2.293l1.539-0.129l0.007-0.032
				c0.043,0.218,0.087,0.44,0.161,0.648c-1.623,5.281-4.026,12.826-5.515,16.169c-0.524,1.185-1.035,2.402-1.512,3.584l-1.707,1.984
				l-2.161,8.335l-0.262,4.026c-3.253,8.105-7.659,20.403-8.438,21.78c-0.81,1.048-0.084,1.715,0.202,3.12
				c-2.473,4.521-8.105,15.052-13.714,26.793c0,0,8.959-10.917,12.064-15.432c1.905-2.771,7.42-9.838,12.249-19.303
				c0.981-1.92,1.976-3.861,2.937-5.741c0.558-0.387,1.072-0.728,1.072-0.728l1.089-3.468c1.381-2.653,2.631-5.027,3.626-6.827
				c1.156-2.08,2.1-4.666,2.678-6.795C429.851,335.721,430.368,334.678,430.368,334.678z M423.516,338.311
				c-0.729,1.322-1.576,2.902-2.5,4.666c0.259-0.624,0.407-0.986,0.417-1.017c0.666-1.65,1.489-3.682,0.746-6.036
				c0.648-1.675,1.385-3.485,2.151-5.202c2.584-5.809,7.339-22.048,7.541-22.737c0.265-0.9,0.255-2.008,0.01-3.018
				c0.827-2.46,1.748-5.42,2.393-8.156c0.719-3.043,4.244-13.084,7.356-21.941c2.615-7.454,5.091-14.486,5.921-17.436
				c0.329-1.165,0.867-3.06,0.215-5.115c0.195-0.538,0.42-1.145,0.676-1.83c0.672-1.792,1.324-3.969,1.959-6.418
				c-0.003,0.045-0.007,0.089-0.013,0.133c-0.148,1.732-0.03,3.204,0.356,4.389c-0.296,1.131-0.639,2.406-0.948,3.559
				c-0.379,1.411-0.779,2.914-1.166,4.39c-0.847,3.255-3.596,12.315-6.247,21.076c-3.122,10.296-5.047,16.677-5.481,18.533
				c-0.504,2.147-1.617,6.086-2.423,8.961c-0.679,2.404-1.039,3.68-1.19,4.333c-0.208,0.653-1.243,3.449-2.164,5.919
				c-6.103,16.419-6.395,17.596-5.854,19.714C424.86,335.866,424.292,336.911,423.516,338.311z"/>
			<path d="M458.254,157.029c-0.04-0.319-0.064-0.501-0.064-0.501C458.214,156.686,458.234,156.855,458.254,157.029z
				 M427.125,334.352c-0.313-1.159,7.732-21.781,7.991-23.001c0.262-1.216,2.746-9.589,3.626-13.353
				c0.884-3.774,9.991-32.945,11.702-39.504c1.714-6.557,3.73-13.474,2.671-11.631c-1.059,1.84-0.773-1.548-0.773-1.548
				s0,0,4.674-31.639c4.234-28.679,1.758-52.316,1.254-56.49c0.786,6.829,0.595,24.16,0.595,24.16l-0.75-1.872
				c0,0-0.588,5.256-0.995,9.083c-0.414,3.831-4.967,45.093-10.377,59.602c-5.407,14.511,0.81,0.893-0.984,7.244
				c-1.795,6.35-11.943,33.679-13.328,39.559c-1.384,5.879-4.181,13.084-4.181,13.084l1.835-2.132c0,0-4.859,16.618-7.379,22.286
				c-2.514,5.669-4.702,12.167-4.702,12.167s4.097-6.585,1.765-0.828c-2.333,5.758-10.609,25.431-11.329,26.259
				c-0.716,0.833,1.22,0.42,0.669,1.667c-0.548,1.244-14.249,25.689-14.249,25.689s7.144-9.816,10.266-14.356
				c3.119-4.535,14.686-28.334,19.898-37.74C430.237,331.651,427.441,335.509,427.125,334.352z"/>
		</g>
		<g>
			<path d="M433.927,206.712c-1.979,7.054-2.668,12.383-3.015,16.349l1.788-1.885l-2.417,8.748
				c-0.121,0.674-0.262,1.304-0.487,1.889c-0.531,1.379-0.648,1.964-1.001,3.695c-0.138,0.681-0.303,1.484-0.524,2.497
				c-0.414,1.882-1.774,6.282-3.347,11.379c-1.005,3.253-2.258,7.3-3.078,10.182l0.043,0.17l2.151-0.232l-4.033,10.31v-0.002
				c-3.018,8.193-8.858,23.682-11.782,31.305c-1.375,3.582-2.255,6.111-2.951,8.233l1.005-0.583l-4.547,11.212l0.034-0.141
				c-1.055,2.512-2.5,5.061-4.046,7.738c-1.831,3.177-3.73,6.464-4.661,9.329c-1.717,5.261-5.239,12.438-7.343,16.724
				c-0.518,1.057-0.921,1.87-1.126,2.324c-0.286,0.631-0.978,2.042-2.278,4.686c-2.843,5.778-8.136,16.539-9.705,20.632
				c-2.359,6.145-20.842,27.277-20.842,27.277c0.239-0.432,21.44-45.442,26.458-64.599c3.438-13.12,6.765-19.862,9.437-25.28
				c0.373-0.758,0.722-1.474,1.059-2.169l-0.84,0.198l0.83-3.796c-0.245-1.207-0.03-2.488,0.42-4.132
				c0.289-1.04,0.77-2.43,1.381-4.061l0.007-0.03v0.012c1.377-3.669,3.471-8.68,5.941-14.584
				c4.224-10.083,9.477-22.64,11.822-30.488c3.33-11.147,6.21-23.015,7.151-28.489l-0.487-0.145l-0.017-0.064l-0.813,0.647
				l0.205-3.28c-0.027-0.39-0.003-0.802,0.078-1.259l0.003-0.049c0,0,0.01-0.006,0.01-0.008c0.225-1.218,0.83-2.826,1.909-5.661
				c1.438-3.781,3.613-9.497,6.318-17.762c6.893-21.063,21.968-79.787,21.968-79.787
				C444.334,126.108,440.991,181.53,433.927,206.712z"/>
			<path fill="#A9A8A8" d="M379.033,343.208c3.441-13.12,6.761-19.864,9.436-25.281c0.373-0.758,0.723-1.476,1.059-2.167
				l-0.84,0.196l0.833-3.795c-0.249-1.207-0.033-2.489,0.417-4.132c0.289-1.04,0.77-2.43,1.381-4.06l0.01-0.034v0.014
				c1.375-3.668,3.468-8.68,5.938-14.582c4.224-10.088,9.48-22.643,11.826-30.49c3.331-11.149,6.21-23.017,7.148-28.491
				l-0.484-0.143l-0.02-0.065l-0.813,0.649l0.205-3.28c-0.023-0.39-0.003-0.8,0.077-1.26l0.007-0.049l0.007-0.007
				c0.229-1.218,0.83-2.828,1.909-5.661c1.438-3.782,3.612-9.499,6.318-17.764c6.892-21.064,21.971-79.788,21.971-79.788
				c-0.272,2.348-3.613,57.771-10.68,82.951c-1.976,7.052-2.665,12.385-3.011,16.351l1.788-1.885l-2.419,8.744
				c-0.118,0.676-0.262,1.306-0.487,1.892c-0.531,1.379-0.648,1.962-1.001,3.693c-0.138,0.68-0.299,1.483-0.524,2.497
				c-0.41,1.88-1.771,6.284-3.347,11.38c-1.005,3.253-2.255,7.299-3.079,10.183l0.047,0.169l2.147-0.231l-4.033,10.308l0.003-0.003
				c-3.021,8.195-8.858,23.684-11.786,31.309c-1.375,3.579-2.255,6.111-2.95,8.231l1.004-0.583l-4.546,11.214l0.037-0.141
				c-1.059,2.509-2.503,5.06-4.049,7.736c-1.832,3.178-3.727,6.464-4.661,9.329c-1.714,5.263-5.236,12.437-7.343,16.725
				c-0.518,1.055-0.917,1.869-1.125,2.322c-0.286,0.632-0.978,2.042-2.279,4.686c-2.843,5.779-8.136,16.539-9.705,20.632
				c-2.359,6.146-20.842,27.277-20.842,27.277C352.814,407.373,374.016,362.362,379.033,343.208z"/>
			<path d="M381.95,343.928c5.239-19.995,10.145-24.46,12.951-33.354c2.803-8.894-4.006,5.286-2.063-1.761
				c1.946-7.052,14.844-34.725,19.122-49.049c4.278-14.322,9.53-35.937,7.043-33.417c-2.49,2.521,1.123-3.735,7.272-22.522
				c7.07-21.591,19.142-80.806,19.142-80.806s-6.54,57.072-13.573,82.145c-3.996,14.237-3.048,22.221-3.979,24.644
				c-0.931,2.425-0.938,3.24-1.748,6.938c-0.813,3.7-6.677,21.368-7.292,24.954c-0.619,3.585,2.557-3.1,0.628,2.324
				c-1.933,5.425-9.574,25.743-13.16,35.092c-3.585,9.347-3.999,12.007-5.928,17.433c-1.929,5.426-7.272,12.294-9.329,18.601
				c-2.053,6.306-7.269,16.332-8.26,18.521c-0.995,2.193-9.843,19.711-12.102,25.595c-2.262,5.884-18.1,28.54-18.1,28.54
				S376.714,363.921,381.95,343.928z"/>
		</g>
	</g>
</g>
</svg>
